<svg width="16" height="17" viewBox="0 0 16 17" fill="none" xmlns="http://www.w3.org/2000/svg">
<path d="M15.4569 8.2975C15.435 8.24813 14.9056 7.07375 13.7287 5.89687C12.1606 4.32875 10.18 3.5 7.99999 3.5C5.81999 3.5 3.83937 4.32875 2.27124 5.89687C1.09437 7.07375 0.562494 8.25 0.543119 8.2975C0.51469 8.36144 0.5 8.43064 0.5 8.50062C0.5 8.5706 0.51469 8.6398 0.543119 8.70375C0.564994 8.75312 1.09437 9.92688 2.27124 11.1038C3.83937 12.6713 5.81999 13.5 7.99999 13.5C10.18 13.5 12.1606 12.6713 13.7287 11.1038C14.9056 9.92688 15.435 8.75312 15.4569 8.70375C15.4853 8.6398 15.5 8.5706 15.5 8.50062C15.5 8.43064 15.4853 8.36144 15.4569 8.2975ZM7.99999 12.5C6.07624 12.5 4.39562 11.8006 3.00437 10.4219C2.43352 9.85418 1.94786 9.20685 1.56249 8.5C1.94776 7.79309 2.43343 7.14574 3.00437 6.57812C4.39562 5.19938 6.07624 4.5 7.99999 4.5C9.92374 4.5 11.6044 5.19938 12.9956 6.57812C13.5676 7.1456 14.0543 7.79295 14.4406 8.5C13.99 9.34125 12.0269 12.5 7.99999 12.5ZM7.99999 5.5C7.40665 5.5 6.82663 5.67595 6.33328 6.00559C5.83994 6.33524 5.45542 6.80377 5.22836 7.35195C5.00129 7.90013 4.94188 8.50333 5.05764 9.08527C5.17339 9.66721 5.45912 10.2018 5.87867 10.6213C6.29823 11.0409 6.83278 11.3266 7.41472 11.4424C7.99667 11.5581 8.59987 11.4987 9.14804 11.2716C9.69622 11.0446 10.1648 10.6601 10.4944 10.1667C10.824 9.67336 11 9.09334 11 8.5C10.9992 7.7046 10.6828 6.94202 10.1204 6.37959C9.55797 5.81716 8.79539 5.50083 7.99999 5.5ZM7.99999 10.5C7.60443 10.5 7.21775 10.3827 6.88885 10.1629C6.55996 9.94318 6.30361 9.63082 6.15224 9.26537C6.00086 8.89991 5.96125 8.49778 6.03842 8.10982C6.11559 7.72186 6.30608 7.36549 6.58578 7.08579C6.86549 6.80608 7.22185 6.6156 7.60981 6.53843C7.99778 6.46126 8.39991 6.50087 8.76536 6.65224C9.13081 6.80362 9.44317 7.05996 9.66293 7.38886C9.8827 7.71776 9.99999 8.10444 9.99999 8.5C9.99999 9.03043 9.78928 9.53914 9.41421 9.91421C9.03913 10.2893 8.53043 10.5 7.99999 10.5Z" fill="#94A3B8"/>
</svg>
