<svg width="24" height="24" viewBox="0 0 24 24" fill="none" xmlns="http://www.w3.org/2000/svg">
<path d="M22.5 9C22.5 9.19891 22.421 9.38968 22.2803 9.53033C22.1397 9.67098 21.9489 9.75 21.75 9.75H20.25V11.25C20.25 11.4489 20.171 11.6397 20.0303 11.7803C19.8897 11.921 19.6989 12 19.5 12C19.3011 12 19.1103 11.921 18.9697 11.7803C18.829 11.6397 18.75 11.4489 18.75 11.25V9.75H17.25C17.0511 9.75 16.8603 9.67098 16.7197 9.53033C16.579 9.38968 16.5 9.19891 16.5 9C16.5 8.80109 16.579 8.61032 16.7197 8.46967C16.8603 8.32902 17.0511 8.25 17.25 8.25H18.75V6.75C18.75 6.55109 18.829 6.36032 18.9697 6.21967C19.1103 6.07902 19.3011 6 19.5 6C19.6989 6 19.8897 6.07902 20.0303 6.21967C20.171 6.36032 20.25 6.55109 20.25 6.75V8.25H21.75C21.9489 8.25 22.1397 8.32902 22.2803 8.46967C22.421 8.61032 22.5 8.80109 22.5 9ZM13.5 5.25H14.25V6C14.25 6.19891 14.329 6.38968 14.4697 6.53033C14.6103 6.67098 14.8011 6.75 15 6.75C15.1989 6.75 15.3897 6.67098 15.5303 6.53033C15.671 6.38968 15.75 6.19891 15.75 6V5.25H16.5C16.6989 5.25 16.8897 5.17098 17.0303 5.03033C17.171 4.88968 17.25 4.69891 17.25 4.5C17.25 4.30109 17.171 4.11032 17.0303 3.96967C16.8897 3.82902 16.6989 3.75 16.5 3.75H15.75V3C15.75 2.80109 15.671 2.61032 15.5303 2.46967C15.3897 2.32902 15.1989 2.25 15 2.25C14.8011 2.25 14.6103 2.32902 14.4697 2.46967C14.329 2.61032 14.25 2.80109 14.25 3V3.75H13.5C13.3011 3.75 13.1103 3.82902 12.9697 3.96967C12.829 4.11032 12.75 4.30109 12.75 4.5C12.75 4.69891 12.829 4.88968 12.9697 5.03033C13.1103 5.17098 13.3011 5.25 13.5 5.25ZM20.3222 14.3438C20.4095 14.4454 20.468 14.5686 20.4916 14.7005C20.5151 14.8324 20.5029 14.9682 20.4563 15.0938C19.9358 16.513 19.0663 17.7784 17.9279 18.773C16.7895 19.7676 15.4189 20.4594 13.9426 20.7846C12.4663 21.1098 10.9319 21.058 9.48094 20.6338C8.02999 20.2096 6.70926 19.4267 5.64064 18.3575C4.57202 17.2883 3.78994 15.9671 3.36657 14.5159C2.94321 13.0647 2.8922 11.5303 3.21825 10.0542C3.5443 8.57806 4.23692 7.20786 5.23217 6.07002C6.22742 4.93218 7.49324 4.06337 8.91282 3.54375C9.03777 3.49799 9.17264 3.4863 9.3036 3.50987C9.43456 3.53344 9.55689 3.59142 9.65804 3.67788C9.75919 3.76434 9.83552 3.87614 9.8792 4.00184C9.92287 4.12753 9.93232 4.26258 9.90657 4.39313C9.64375 5.72341 9.71261 7.09795 10.1071 8.3953C10.5015 9.69266 11.2095 10.8729 12.1683 11.8317C13.1271 12.7906 14.3074 13.4985 15.6047 13.8929C16.9021 14.2874 18.2766 14.3563 19.6069 14.0934C19.7376 14.0679 19.8728 14.0776 19.9985 14.1216C20.1242 14.1656 20.2359 14.2423 20.3222 14.3438ZM18.5044 15.7388C18.3366 15.7472 18.1678 15.7519 18 15.7519C15.4147 15.7491 12.936 14.7208 11.1081 12.8925C9.28013 11.0642 8.25224 8.58535 8.25001 6C8.25001 5.83219 8.25001 5.66344 8.26313 5.49563C7.26524 6.06985 6.41295 6.86611 5.77229 7.82271C5.13162 8.7793 4.71979 9.87055 4.5687 11.0119C4.41761 12.1533 4.53131 13.3141 4.90099 14.4044C5.27068 15.4948 5.88643 16.4854 6.70053 17.2995C7.51463 18.1136 8.50523 18.7293 9.59558 19.099C10.6859 19.4687 11.8467 19.5824 12.9881 19.4313C14.1295 19.2802 15.2207 18.8684 16.1773 18.2277C17.1339 17.5871 17.9302 16.7348 18.5044 15.7369V15.7388Z" fill="#334155"/>
</svg>
