<svg width="25" height="25" viewBox="0 0 25 25" fill="none" xmlns="http://www.w3.org/2000/svg">
<path d="M10.25 4.25H5.75C5.35218 4.25 4.97064 4.40804 4.68934 4.68934C4.40804 4.97064 4.25 5.35218 4.25 5.75V10.25C4.25 10.6478 4.40804 11.0294 4.68934 11.3107C4.97064 11.592 5.35218 11.75 5.75 11.75H10.25C10.6478 11.75 11.0294 11.592 11.3107 11.3107C11.592 11.0294 11.75 10.6478 11.75 10.25V5.75C11.75 5.35218 11.592 4.97064 11.3107 4.68934C11.0294 4.40804 10.6478 4.25 10.25 4.25ZM10.25 10.25H5.75V5.75H10.25V10.25ZM10.25 13.25H5.75C5.35218 13.25 4.97064 13.408 4.68934 13.6893C4.40804 13.9706 4.25 14.3522 4.25 14.75V19.25C4.25 19.6478 4.40804 20.0294 4.68934 20.3107C4.97064 20.592 5.35218 20.75 5.75 20.75H10.25C10.6478 20.75 11.0294 20.592 11.3107 20.3107C11.592 20.0294 11.75 19.6478 11.75 19.25V14.75C11.75 14.3522 11.592 13.9706 11.3107 13.6893C11.0294 13.408 10.6478 13.25 10.25 13.25ZM10.25 19.25H5.75V14.75H10.25V19.25ZM19.25 4.25H14.75C14.3522 4.25 13.9706 4.40804 13.6893 4.68934C13.408 4.97064 13.25 5.35218 13.25 5.75V10.25C13.25 10.6478 13.408 11.0294 13.6893 11.3107C13.9706 11.592 14.3522 11.75 14.75 11.75H19.25C19.6478 11.75 20.0294 11.592 20.3107 11.3107C20.592 11.0294 20.75 10.6478 20.75 10.25V5.75C20.75 5.35218 20.592 4.97064 20.3107 4.68934C20.0294 4.40804 19.6478 4.25 19.25 4.25ZM19.25 10.25H14.75V5.75H19.25V10.25ZM13.25 17V14C13.25 13.8011 13.329 13.6103 13.4697 13.4697C13.6103 13.329 13.8011 13.25 14 13.25C14.1989 13.25 14.3897 13.329 14.5303 13.4697C14.671 13.6103 14.75 13.8011 14.75 14V17C14.75 17.1989 14.671 17.3897 14.5303 17.5303C14.3897 17.671 14.1989 17.75 14 17.75C13.8011 17.75 13.6103 17.671 13.4697 17.5303C13.329 17.3897 13.25 17.1989 13.25 17ZM20.75 15.5C20.75 15.6989 20.671 15.8897 20.5303 16.0303C20.3897 16.171 20.1989 16.25 20 16.25H17.75V20C17.75 20.1989 17.671 20.3897 17.5303 20.5303C17.3897 20.671 17.1989 20.75 17 20.75H14C13.8011 20.75 13.6103 20.671 13.4697 20.5303C13.329 20.3897 13.25 20.1989 13.25 20C13.25 19.8011 13.329 19.6103 13.4697 19.4697C13.6103 19.329 13.8011 19.25 14 19.25H16.25V14C16.25 13.8011 16.329 13.6103 16.4697 13.4697C16.6103 13.329 16.8011 13.25 17 13.25C17.1989 13.25 17.3897 13.329 17.5303 13.4697C17.671 13.6103 17.75 13.8011 17.75 14V14.75H20C20.1989 14.75 20.3897 14.829 20.5303 14.9697C20.671 15.1103 20.75 15.3011 20.75 15.5ZM20.75 18.5V20C20.75 20.1989 20.671 20.3897 20.5303 20.5303C20.3897 20.671 20.1989 20.75 20 20.75C19.8011 20.75 19.6103 20.671 19.4697 20.5303C19.329 20.3897 19.25 20.1989 19.25 20V18.5C19.25 18.3011 19.329 18.1103 19.4697 17.9697C19.6103 17.829 19.8011 17.75 20 17.75C20.1989 17.75 20.3897 17.829 20.5303 17.9697C20.671 18.1103 20.75 18.3011 20.75 18.5Z" fill="currentColor"/>
</svg>
