<?xml version="1.0" standalone="no"?>
<!DOCTYPE svg PUBLIC "-//W3C//DTD SVG 20010904//EN"
 "http://www.w3.org/TR/2001/REC-SVG-20010904/DTD/svg10.dtd">
<svg version="1.0" xmlns="http://www.w3.org/2000/svg"
 width="800.000000pt" height="800.000000pt" viewBox="0 0 800.000000 800.000000"
 preserveAspectRatio="xMidYMid meet">
<metadata>
Created by potrace 1.14, written by Peter Selinger 2001-2017
</metadata>
<g transform="translate(0.000000,800.000000) scale(0.100000,-0.100000)"
fill="#000000" stroke="none">
<path d="M0 5600 l0 -1600 28 -1 c15 -1 32 0 37 1 20 5 176 0 186 -5 5 -4 9
-3 9 2 0 4 28 7 62 6 74 -3 209 -5 223 -3 6 1 62 1 125 0 63 0 122 -1 130 -1
8 0 44 0 80 0 92 0 132 0 245 0 55 0 107 0 115 0 8 0 38 0 65 0 28 1 82 1 120
1 39 -1 75 -1 80 0 6 1 62 1 125 0 63 0 122 -1 130 -1 8 0 44 0 80 0 92 0 132
0 245 0 55 0 107 0 115 0 8 0 38 0 65 0 28 1 83 1 122 0 40 0 77 2 83 6 5 3
10 1 10 -5 0 -6 5 -8 10 -5 6 3 67 6 136 6 l125 0 17 37 c9 20 20 39 25 40 4
2 7 9 7 15 0 15 42 100 53 108 5 3 8 9 7 13 -1 9 223 460 233 467 5 3 9 10 8
15 0 12 302 618 312 625 5 3 8 9 7 13 -2 9 223 459 233 467 5 3 8 8 6 10 -2 4
437 889 446 897 2 3 4 -447 4 -999 0 -552 1 -1042 1 -1089 l0 -85 594 1 595 1
-19 -48 c-11 -27 -24 -56 -29 -66 -9 -15 -37 -81 -144 -333 -6 -14 -11 -28
-11 -32 -1 -3 -4 -10 -8 -14 -5 -4 -8 -13 -8 -21 0 -15 47 -12 230 18 36 6 74
12 85 13 11 2 47 9 80 16 73 17 74 17 78 20 3 2 24 7 62 15 17 3 39 9 50 12
11 4 23 8 28 9 4 1 8 2 10 4 1 1 9 3 17 5 91 19 374 132 525 210 158 82 353
199 375 224 3 4 24 18 47 33 161 105 471 397 622 588 45 58 89 113 97 123 8 9
14 20 14 23 0 2 11 17 25 32 14 15 25 32 25 38 0 6 9 19 20 29 11 10 20 22 20
27 0 11 52 92 63 96 4 2 7 12 7 22 0 9 6 22 13 28 6 6 30 46 52 89 22 43 45
81 50 85 6 4 7 8 3 8 -3 0 7 28 24 62 33 68 112 264 116 288 1 3 12 35 26 73
13 37 22 67 19 67 -3 0 0 7 7 15 7 8 9 15 6 15 -4 0 -2 8 3 18 5 9 12 31 15
47 3 17 10 50 16 75 16 62 19 78 30 135 5 28 12 64 15 80 7 38 12 68 20 130
12 98 15 132 20 268 l5 137 -4000 0 -4000 0 0 -1600z"/>
<path d="M5317 4004 c-3 -4 -61 -6 -127 -5 l-121 1 -15 -38 c-8 -20 -27 -62
-41 -92 -14 -30 -26 -61 -27 -68 -1 -7 -8 -18 -14 -24 -7 -7 -12 -16 -12 -22
0 -5 -23 -64 -51 -130 -48 -113 -63 -147 -110 -253 -11 -24 -19 -45 -19 -47 0
-3 -14 -35 -32 -73 -17 -37 -31 -74 -31 -80 0 -7 -4 -13 -9 -13 -4 0 -8 -9 -8
-19 0 -11 -4 -22 -9 -25 -5 -3 -11 -16 -15 -29 -3 -13 -18 -50 -33 -83 -15
-32 -28 -61 -29 -64 -1 -7 -21 -54 -45 -108 -34 -76 -46 -103 -79 -182 -17
-41 -35 -84 -40 -95 -15 -33 -45 -104 -94 -220 -26 -60 -53 -123 -61 -140 -19
-41 -141 -330 -150 -355 -1 -3 -9 -21 -18 -40 l-16 -35 -1 40 c0 22 -1 511 -1
1088 0 576 -3 1047 -7 1048 -4 0 -313 1 -687 1 -555 1 -684 3 -701 14 -11 8
-24 11 -28 7 -3 -4 -17 -8 -29 -10 -88 -13 -341 -72 -397 -94 -14 -5 -34 -11
-45 -14 -11 -2 -51 -15 -90 -30 -38 -14 -76 -27 -83 -30 -7 -2 -15 -4 -18 -4
-3 0 -15 -6 -28 -14 -12 -8 -41 -21 -64 -28 -23 -7 -42 -16 -42 -21 0 -4 -6
-8 -14 -8 -34 0 -378 -192 -488 -272 -13 -10 -59 -44 -103 -76 -94 -68 -202
-160 -298 -252 -38 -36 -72 -66 -78 -68 -5 -2 -9 -8 -9 -13 0 -5 -19 -28 -43
-52 -66 -67 -114 -124 -196 -232 -42 -55 -79 -101 -83 -103 -5 -2 -8 -8 -8
-13 0 -5 -16 -32 -36 -60 -82 -117 -212 -358 -273 -504 -18 -44 -37 -88 -42
-97 -5 -10 -9 -22 -9 -27 0 -5 -7 -25 -15 -45 -8 -20 -16 -39 -16 -43 -1 -5
-7 -24 -14 -43 -63 -171 -120 -422 -140 -616 -3 -28 -8 -62 -10 -75 -3 -13 -8
-90 -11 -171 l-6 -148 4001 0 4001 0 0 1600 0 1600 -27 -1 c-16 0 -64 0 -108
1 -44 1 -84 1 -90 0 -5 -1 -64 -1 -130 0 -66 1 -127 1 -135 1 -98 -2 -132 -1
-140 4 -6 3 -10 3 -10 -2 0 -4 -28 -7 -62 -5 -35 2 -79 2 -98 1 -19 0 -41 -1
-47 0 -28 2 -42 3 -148 2 -149 0 -143 0 -208 -1 -31 -1 -62 2 -67 5 -6 3 -10
3 -10 -2 0 -4 -28 -7 -62 -5 -35 2 -79 2 -98 1 -19 0 -42 -1 -50 0 -8 0 -55 0
-105 0 -202 0 -247 1 -256 7 -5 3 -9 2 -9 -3 0 -4 -28 -7 -62 -6 -72 3 -208 5
-223 3 -5 0 -55 0 -110 0 -55 1 -113 1 -130 0 -16 -1 -37 -2 -45 -1 -65 2
-215 0 -218 -4 -3 -3 -10 0 -17 5 -7 5 -15 7 -18 4z"/>
</g>
</svg>
