<svg width="49" height="48" viewBox="0 0 49 48" fill="none" xmlns="http://www.w3.org/2000/svg">
<rect x="0.333496" width="48" height="48" rx="24" fill="currentColor" fill-opacity="0.05"/>
<circle cx="24.3335" cy="24" r="17" stroke="currentColor" stroke-opacity="0.1"/>
<rect x="12.3335" y="12" width="24" height="24" rx="12" fill="url(#paint0_linear_27_2291)" fill-opacity="0.07"/>
<rect x="12.8335" y="12.5" width="23" height="23" rx="11.5" stroke="currentColor" stroke-opacity="0.1"/>
<g clip-path="url(#clip0_27_2291)">
<path d="M29.6065 18.727C29.5542 18.6746 29.4921 18.633 29.4238 18.6046C29.3554 18.5762 29.2821 18.5616 29.208 18.5616C29.134 18.5616 29.0607 18.5762 28.9923 18.6046C28.924 18.633 28.8619 18.6746 28.8096 18.727L26.487 21.0511L26.3679 20.9316C26.0511 20.6157 25.622 20.4383 25.1747 20.4383C24.7273 20.4383 24.2983 20.6157 23.9815 20.9316L23.021 21.8906L22.8565 21.7256C22.8042 21.6733 22.742 21.6318 22.6737 21.6035C22.6053 21.5752 22.532 21.5606 22.458 21.5606C22.3086 21.5606 22.1653 21.6199 22.0596 21.7256C22.0073 21.7779 21.9658 21.8401 21.9375 21.9084C21.9091 21.9768 21.8946 22.0501 21.8946 22.1241C21.8946 22.2735 21.9539 22.4168 22.0596 22.5225L22.2241 22.6875L21.2651 23.648C20.9486 23.9644 20.7709 24.3936 20.7709 24.8412C20.7709 25.2887 20.9486 25.7179 21.2651 26.0344L21.3846 26.1534L19.0605 28.477C18.9549 28.5827 18.8955 28.726 18.8955 28.8755C18.8955 29.0249 18.9549 29.1682 19.0605 29.2739C19.1662 29.3796 19.3095 29.4389 19.459 29.4389C19.6084 29.4389 19.7517 29.3796 19.8574 29.2739L22.181 26.9498L22.3001 27.0694C22.6169 27.3851 23.046 27.5624 23.4933 27.5624C23.9406 27.5624 24.3697 27.3851 24.6865 27.0694L25.646 26.1094L25.8105 26.2744C25.9162 26.38 26.0595 26.4394 26.209 26.4394C26.3584 26.4394 26.5017 26.38 26.6074 26.2744C26.7131 26.1687 26.7725 26.0254 26.7725 25.8759C26.7725 25.7265 26.7131 25.5832 26.6074 25.4775L26.4429 25.3125L27.4034 24.352C27.7198 24.0356 27.8976 23.6064 27.8976 23.1588C27.8976 22.7113 27.7198 22.2821 27.4034 21.9656L27.2838 21.8466L29.6079 19.523C29.6601 19.4706 29.7015 19.4085 29.7297 19.3402C29.7579 19.2718 29.7723 19.1986 29.7722 19.1247C29.772 19.0508 29.7573 18.9776 29.7289 18.9094C29.7005 18.8411 29.6589 18.7792 29.6065 18.727ZM23.8901 26.2739C23.8378 26.3263 23.7757 26.368 23.7074 26.3963C23.639 26.4247 23.5657 26.4393 23.4916 26.4393C23.4176 26.4393 23.3443 26.4247 23.2759 26.3963C23.2076 26.368 23.1455 26.3263 23.0932 26.2739L22.0605 25.2389C22.0081 25.1866 21.9665 25.1245 21.9381 25.0562C21.9097 24.9878 21.8951 24.9145 21.8951 24.8405C21.8951 24.7664 21.9097 24.6931 21.9381 24.6248C21.9665 24.5564 22.0081 24.4943 22.0605 24.442L23.021 23.4844L24.8491 25.3125L23.8901 26.2739ZM26.6088 23.5575L25.646 24.5156L23.8179 22.6875L24.7784 21.727C24.8306 21.6746 24.8927 21.633 24.9611 21.6046C25.0295 21.5762 25.1028 21.5616 25.1768 21.5616C25.2508 21.5616 25.3241 21.5762 25.3925 21.6046C25.4609 21.633 25.523 21.6746 25.5752 21.727L26.6093 22.7611C26.6617 22.8133 26.7033 22.8754 26.7317 22.9438C26.7601 23.0122 26.7747 23.0855 26.7747 23.1595C26.7747 23.2336 26.7601 23.3069 26.7317 23.3752C26.7033 23.4436 26.6617 23.5057 26.6093 23.558L26.6088 23.5575ZM22.3305 19.5642C22.2663 19.4311 22.2571 19.2781 22.3048 19.1382C22.3525 18.9984 22.4533 18.8829 22.5854 18.8168C22.7176 18.7506 22.8704 18.7391 23.011 18.7848C23.1515 18.8305 23.2684 18.9296 23.3365 19.0608L23.7115 19.8108C23.7458 19.877 23.7666 19.9493 23.7728 20.0236C23.7789 20.0979 23.7702 20.1727 23.7471 20.2436C23.7241 20.3145 23.6872 20.3801 23.6386 20.4366C23.5899 20.4931 23.5306 20.5394 23.4639 20.5728C23.3972 20.6062 23.3246 20.6259 23.2502 20.631C23.1758 20.636 23.1012 20.6262 23.0306 20.6022C22.9601 20.5781 22.895 20.5403 22.8392 20.4908C22.7834 20.4414 22.7379 20.3814 22.7055 20.3142L22.3305 19.5642ZM19.143 22.2483C19.2098 22.1149 19.3268 22.0135 19.4684 21.9664C19.6099 21.9193 19.7643 21.9303 19.8977 21.997L20.6477 22.372C20.7149 22.4044 20.7749 22.4498 20.8244 22.5057C20.8738 22.5615 20.9116 22.6265 20.9357 22.6971C20.9598 22.7677 20.9696 22.8423 20.9645 22.9167C20.9595 22.9911 20.9397 23.0637 20.9063 23.1304C20.873 23.1971 20.8267 23.2564 20.7702 23.3051C20.7136 23.3537 20.648 23.3906 20.5771 23.4136C20.5062 23.4367 20.4314 23.4454 20.3571 23.4392C20.2828 23.4331 20.2105 23.4123 20.1443 23.378L19.3943 23.003C19.2609 22.9362 19.1595 22.8192 19.1124 22.6776C19.0653 22.5361 19.0763 22.3817 19.143 22.2483ZM29.524 25.7517C29.4572 25.8851 29.3402 25.9865 29.1987 26.0336C29.0571 26.0807 28.9027 26.0697 28.7693 26.003L28.0193 25.628C27.8881 25.5599 27.789 25.443 27.7433 25.3025C27.6977 25.1619 27.7091 25.009 27.7753 24.8769C27.8414 24.7448 27.9569 24.6439 28.0968 24.5962C28.2366 24.5486 28.3896 24.5578 28.5227 24.622L29.2727 24.997C29.4061 25.0638 29.5075 25.1808 29.5546 25.3223C29.6018 25.4639 29.5907 25.6183 29.524 25.7517ZM26.3365 28.4358C26.3708 28.502 26.3916 28.5743 26.3978 28.6486C26.4039 28.7229 26.3952 28.7977 26.3721 28.8686C26.3491 28.9395 26.3122 29.0051 26.2636 29.0616C26.2149 29.1181 26.1556 29.1644 26.0889 29.1978C26.0222 29.2312 25.9496 29.2509 25.8752 29.256C25.8008 29.261 25.7262 29.2512 25.6556 29.2272C25.5851 29.2031 25.52 29.1653 25.4642 29.1158C25.4084 29.0664 25.3629 29.0064 25.3305 28.9392L24.9555 28.1892C24.8913 28.0561 24.8821 27.9031 24.9298 27.7632C24.9775 27.6234 25.0783 27.5079 25.2104 27.4418C25.3426 27.3756 25.4954 27.3641 25.636 27.4098C25.7765 27.4555 25.8934 27.5546 25.9615 27.6858L26.3365 28.4358Z" fill="currentColor"/>
</g>
<path d="M35.4517 21.0208C35.7129 20.9509 35.8688 20.6821 35.7882 20.424C35.0172 17.954 33.4679 15.7989 31.3722 14.2812C31.1532 14.1226 30.8488 14.1848 30.6993 14.41C30.5498 14.6352 30.6119 14.9381 30.8303 15.0974C32.7279 16.4822 34.1337 18.4378 34.8418 20.6777C34.9233 20.9354 35.1906 21.0908 35.4517 21.0208Z" fill="url(#paint1_linear_27_2291)"/>
<path d="M13.2152 26.9792C12.9541 27.0491 12.7982 27.3179 12.8788 27.576C13.6498 30.046 15.1991 32.2011 17.2948 33.7189C17.5137 33.8774 17.8182 33.8152 17.9677 33.59C18.1172 33.3648 18.0551 33.0619 17.8367 32.9026C15.9391 31.5178 14.5333 29.5622 13.8252 27.3223C13.7437 27.0646 13.4764 26.9092 13.2152 26.9792Z" fill="url(#paint2_linear_27_2291)"/>
<defs>
<linearGradient id="paint0_linear_27_2291" x1="24.3335" y1="36" x2="24.3335" y2="12" gradientUnits="userSpaceOnUse">
<stop stop-color="#2E41EC"/>
<stop offset="1" stop-color="#2E41EC" stop-opacity="0"/>
</linearGradient>
<linearGradient id="paint1_linear_27_2291" x1="30.6026" y1="14.5556" x2="35.4416" y2="21.0236" gradientUnits="userSpaceOnUse">
<stop stop-color="#D9D9D9"/>
<stop offset="0.57" stop-color="#404556"/>
<stop offset="1" stop-color="#343849"/>
</linearGradient>
<linearGradient id="paint2_linear_27_2291" x1="18.0644" y1="33.4444" x2="13.2254" y2="26.9764" gradientUnits="userSpaceOnUse">
<stop stop-color="#D9D9D9"/>
<stop offset="0.57" stop-color="#404556"/>
<stop offset="1" stop-color="#343849"/>
</linearGradient>
<clipPath id="clip0_27_2291">
<rect width="12" height="12" fill="currentColor" transform="translate(18.3335 18)"/>
</clipPath>
</defs>
</svg>
